<svg width="523" height="13" viewBox="0 0 523 13" fill="none" xmlns="http://www.w3.org/2000/svg">
<path d="M5.33984 9.05078V10H0.347656V1.54492H5.33984V2.49414H1.38477V5.23633H5.12305V6.14453H1.38477V9.05078H5.33984ZM12.9043 10H7.63672V9.17383H9.81055V1.97266H7.6543V1.14648H10.8066V9.17383H12.9043V10ZM17.6152 4.38086C16.5547 4.38086 15.916 5.10742 15.916 6.32617H19.2617C19.2617 5.11328 18.6406 4.38086 17.6152 4.38086ZM19.2617 8.35938H20.2285C20.0352 9.4082 19.0273 10.1172 17.6914 10.1172C15.9453 10.1172 14.9316 9.06836 14.9316 7.25781V6.30273C14.9316 4.62695 16.0039 3.52539 17.6211 3.52539C19.2734 3.52539 20.2461 4.62109 20.2461 6.46094V7.08203H15.916V7.33984C15.916 8.50586 16.6074 9.25586 17.6914 9.25586C18.4941 9.25586 19.0859 8.91602 19.2617 8.35938ZM22.0918 3.64258H23.1582L24.9336 8.93359H25.0098L26.7734 3.64258H27.834L25.5137 10H24.418L22.0918 3.64258ZM31.7363 10.1113C30.5234 10.1113 29.7148 9.34961 29.7148 8.19531C29.7148 7.07031 30.5234 6.40234 31.9707 6.32617L33.7168 6.23828V5.66406C33.7168 4.86719 33.2305 4.42773 32.3457 4.42773C31.6133 4.42773 31.0977 4.73828 30.9336 5.2832H29.9551C30.0723 4.26367 31.0566 3.56641 32.3574 3.56641C33.8516 3.56641 34.707 4.32812 34.707 5.65234V10.0059H33.7578V9.05078H33.6582C33.3535 9.73047 32.6621 10.1113 31.7363 10.1113ZM32.0234 9.23828C32.9844 9.23828 33.7168 8.59961 33.7168 7.75V7L32.082 7.07617C31.1914 7.11719 30.7227 7.49805 30.7227 8.16016C30.7227 8.82812 31.2207 9.23828 32.0234 9.23828ZM38.7148 1.9375H39.6992V3.66016H42.2773V4.50977H39.7109V8.0957C39.7109 8.78711 40.1973 9.16211 41.0938 9.16211C41.4512 9.16211 42.0898 9.14453 42.2598 9.12695V9.9707C42.1016 10 41.3281 10.0293 41.0234 10.0293C39.4473 10.0293 38.7148 9.43164 38.7148 8.10742V4.50977H37.0215V3.66016H38.7148V1.9375ZM47.2871 4.38086C46.2266 4.38086 45.5879 5.10742 45.5879 6.32617H48.9336C48.9336 5.11328 48.3125 4.38086 47.2871 4.38086ZM48.9336 8.35938H49.9004C49.707 9.4082 48.6992 10.1172 47.3633 10.1172C45.6172 10.1172 44.6035 9.06836 44.6035 7.25781V6.30273C44.6035 4.62695 45.6758 3.52539 47.293 3.52539C48.9453 3.52539 49.918 4.62109 49.918 6.46094V7.08203H45.5879V7.33984C45.5879 8.50586 46.2793 9.25586 47.3633 9.25586C48.166 9.25586 48.7578 8.91602 48.9336 8.35938ZM64.6836 9.05078V10H59.6914V1.54492H64.6836V2.49414H60.7285V5.23633H64.4668V6.14453H60.7285V9.05078H64.6836ZM67.6426 6.35547V7.26953C67.6426 8.44141 68.3164 9.19727 69.3652 9.19727C70.4082 9.19727 71.082 8.44727 71.082 7.26953V6.35547C71.082 5.18359 70.4082 4.43359 69.3652 4.43359C68.3164 4.43359 67.6426 5.18359 67.6426 6.35547ZM71.0879 9.02734H70.9766C70.6484 9.73047 69.9805 10.1055 69.0723 10.1055C67.6016 10.1055 66.6406 9.04492 66.6406 7.41016V6.22656C66.6406 4.59766 67.6016 3.53711 69.0723 3.53711C69.9922 3.53711 70.6719 3.92969 70.9473 4.62695H71.0527V1.14648H72.0664V10H71.0879V9.02734ZM79.4902 3.64258V10H78.5352V8.88086H78.4531C78.1133 9.67188 77.3867 10.1172 76.4199 10.1172C75.0371 10.1172 74.2871 9.29102 74.2871 7.76758V3.64258H75.2832V7.51562C75.2832 8.66406 75.752 9.20312 76.7422 9.20312C77.791 9.20312 78.4941 8.4707 78.4941 7.38672V3.64258H79.4902ZM86.9551 5.62305H85.9707C85.8477 4.87891 85.2266 4.41016 84.4062 4.41016C83.2988 4.41016 82.6836 5.16602 82.6836 6.53125V7.10547C82.6836 8.4707 83.2988 9.2207 84.4062 9.2207C85.2266 9.2207 85.8477 8.75781 85.9707 8.03125H86.9551C86.7969 9.32617 85.8301 10.1172 84.4238 10.1172C82.6953 10.1172 81.6875 9.05664 81.6875 7.23438V6.40234C81.6875 4.58008 82.6953 3.51953 84.4238 3.51953C85.8301 3.51953 86.791 4.31641 86.9551 5.62305ZM91.0801 10.1113C89.8672 10.1113 89.0586 9.34961 89.0586 8.19531C89.0586 7.07031 89.8672 6.40234 91.3145 6.32617L93.0605 6.23828V5.66406C93.0605 4.86719 92.5742 4.42773 91.6895 4.42773C90.957 4.42773 90.4414 4.73828 90.2773 5.2832H89.2988C89.416 4.26367 90.4004 3.56641 91.7012 3.56641C93.1953 3.56641 94.0508 4.32812 94.0508 5.65234V10.0059H93.1016V9.05078H93.002C92.6973 9.73047 92.0059 10.1113 91.0801 10.1113ZM91.3672 9.23828C92.3281 9.23828 93.0605 8.59961 93.0605 7.75V7L91.4258 7.07617C90.5352 7.11719 90.0664 7.49805 90.0664 8.16016C90.0664 8.82812 90.5645 9.23828 91.3672 9.23828ZM98.0586 1.9375H99.043V3.66016H101.621V4.50977H99.0547V8.0957C99.0547 8.78711 99.541 9.16211 100.438 9.16211C100.795 9.16211 101.434 9.14453 101.604 9.12695V9.9707C101.445 10 100.672 10.0293 100.367 10.0293C98.791 10.0293 98.0586 9.43164 98.0586 8.10742V4.50977H96.3652V3.66016H98.0586V1.9375ZM106.672 2.08398C106.203 2.08398 105.846 1.73242 105.846 1.26367C105.846 0.800781 106.203 0.449219 106.672 0.449219C107.141 0.449219 107.498 0.800781 107.498 1.26367C107.498 1.73242 107.141 2.08398 106.672 2.08398ZM109.338 10H104.07V9.17383H106.25V4.46875H104.088V3.64258H107.234V9.17383H109.338V10ZM113.979 10.1172C112.297 10.1172 111.225 9.02148 111.225 7.30469V6.34375C111.225 4.62695 112.297 3.53125 113.979 3.53125C115.66 3.53125 116.732 4.62695 116.732 6.34375V7.30469C116.732 9.02148 115.66 10.1172 113.979 10.1172ZM113.979 4.41016C112.889 4.41016 112.209 5.18359 112.209 6.43164V7.21094C112.209 8.46484 112.889 9.23242 113.979 9.23242C115.068 9.23242 115.748 8.46484 115.748 7.21094V6.43164C115.748 5.18359 115.068 4.41016 113.979 4.41016ZM118.795 10V3.64258H119.75V4.76172H119.832C120.172 3.9707 120.898 3.52539 121.865 3.52539C123.248 3.52539 123.998 4.35156 123.998 5.875V10H123.002V6.12695C123.002 4.97852 122.533 4.43945 121.543 4.43945C120.494 4.43945 119.791 5.17188 119.791 6.25586V10H118.795ZM128.51 11.9629H127.461L128.223 7.7793H129.57L128.51 11.9629ZM299.428 10.0352C298.848 10.0352 298.367 9.54883 298.367 8.95117C298.367 8.35938 298.848 7.87305 299.428 7.87305C300.008 7.87305 300.488 8.35938 300.488 8.95117C300.488 9.54883 300.008 10.0352 299.428 10.0352ZM299.428 5.53516C298.848 5.53516 298.367 5.04297 298.367 4.45117C298.367 3.85938 298.848 3.36719 299.428 3.36719C300.008 3.36719 300.488 3.85938 300.488 4.45117C300.488 5.04297 300.008 5.53516 299.428 5.53516ZM314.018 10.1758C312.547 10.1758 311.539 9.25 311.533 7.88477H312.547C312.576 8.66406 313.168 9.19141 314.006 9.19141C314.961 9.19141 315.5 8.60547 315.5 7.5625V2.46484H312.594V1.54492H316.537V7.5918C316.537 9.20312 315.582 10.1758 314.018 10.1758ZM321.682 10.1172C320 10.1172 318.928 9.02148 318.928 7.30469V6.34375C318.928 4.62695 320 3.53125 321.682 3.53125C323.363 3.53125 324.436 4.62695 324.436 6.34375V7.30469C324.436 9.02148 323.363 10.1172 321.682 10.1172ZM321.682 4.41016C320.592 4.41016 319.912 5.18359 319.912 6.43164V7.21094C319.912 8.46484 320.592 9.23242 321.682 9.23242C322.771 9.23242 323.451 8.46484 323.451 7.21094V6.43164C323.451 5.18359 322.771 4.41016 321.682 4.41016ZM329.211 2.08398C328.742 2.08398 328.385 1.73242 328.385 1.26367C328.385 0.800781 328.742 0.449219 329.211 0.449219C329.68 0.449219 330.037 0.800781 330.037 1.26367C330.037 1.73242 329.68 2.08398 329.211 2.08398ZM331.877 10H326.609V9.17383H328.789V4.46875H326.627V3.64258H329.773V9.17383H331.877V10ZM333.916 10V3.64258H334.871V4.76172H334.953C335.293 3.9707 336.02 3.52539 336.986 3.52539C338.369 3.52539 339.119 4.35156 339.119 5.875V10H338.123V6.12695C338.123 4.97852 337.654 4.43945 336.664 4.43945C335.615 4.43945 334.912 5.17188 334.912 6.25586V10H333.916ZM350.27 1.9375H351.254V3.66016H353.832V4.50977H351.266V8.0957C351.266 8.78711 351.752 9.16211 352.648 9.16211C353.006 9.16211 353.645 9.14453 353.814 9.12695V9.9707C353.656 10 352.883 10.0293 352.578 10.0293C351.002 10.0293 350.27 9.43164 350.27 8.10742V4.50977H348.576V3.66016H350.27V1.9375ZM356.164 10V1.14648H357.125V4.76758H357.207C357.541 3.97656 358.273 3.53125 359.246 3.53125C360.629 3.53125 361.379 4.36328 361.379 5.88086V10H360.383V6.13281C360.383 4.99023 359.914 4.44531 358.918 4.44531C357.869 4.44531 357.16 5.17773 357.16 6.26172V10H356.164ZM366.26 4.38086C365.199 4.38086 364.561 5.10742 364.561 6.32617H367.906C367.906 5.11328 367.285 4.38086 366.26 4.38086ZM367.906 8.35938H368.873C368.68 9.4082 367.672 10.1172 366.336 10.1172C364.59 10.1172 363.576 9.06836 363.576 7.25781V6.30273C363.576 4.62695 364.648 3.52539 366.266 3.52539C367.918 3.52539 368.891 4.62109 368.891 6.46094V7.08203H364.561V7.33984C364.561 8.50586 365.252 9.25586 366.336 9.25586C367.139 9.25586 367.73 8.91602 367.906 8.35938ZM383.891 9.03906V10H378.857V1.54492H379.883V9.03906H383.891ZM388.514 4.38086C387.453 4.38086 386.814 5.10742 386.814 6.32617H390.16C390.16 5.11328 389.539 4.38086 388.514 4.38086ZM390.16 8.35938H391.127C390.934 9.4082 389.926 10.1172 388.59 10.1172C386.844 10.1172 385.83 9.06836 385.83 7.25781V6.30273C385.83 4.62695 386.902 3.52539 388.52 3.52539C390.172 3.52539 391.145 4.62109 391.145 6.46094V7.08203H386.814V7.33984C386.814 8.50586 387.506 9.25586 388.59 9.25586C389.393 9.25586 389.984 8.91602 390.16 8.35938ZM395.217 10.1113C394.004 10.1113 393.195 9.34961 393.195 8.19531C393.195 7.07031 394.004 6.40234 395.451 6.32617L397.197 6.23828V5.66406C397.197 4.86719 396.711 4.42773 395.826 4.42773C395.094 4.42773 394.578 4.73828 394.414 5.2832H393.436C393.553 4.26367 394.537 3.56641 395.838 3.56641C397.332 3.56641 398.188 4.32812 398.188 5.65234V10.0059H397.238V9.05078H397.139C396.834 9.73047 396.143 10.1113 395.217 10.1113ZM395.504 9.23828C396.465 9.23828 397.197 8.59961 397.197 7.75V7L395.562 7.07617C394.672 7.11719 394.203 7.49805 394.203 8.16016C394.203 8.82812 394.701 9.23828 395.504 9.23828ZM403.016 5.26562H403.145C403.379 4.08789 404.17 3.47852 405.395 3.47852C405.758 3.47852 406.104 3.53125 406.314 3.61914V4.73828C406.021 4.63281 405.611 4.5625 405.266 4.5625C403.859 4.5625 403.027 5.53516 403.027 7.15234V9.20312H404.996V10H400.771V9.20312H402.055V4.43945H400.643V3.64258H403.016V5.26562ZM408.096 10V3.64258H409.051V4.76172H409.133C409.473 3.9707 410.199 3.52539 411.166 3.52539C412.549 3.52539 413.299 4.35156 413.299 5.875V10H412.303V6.12695C412.303 4.97852 411.834 4.43945 410.844 4.43945C409.795 4.43945 409.092 5.17188 409.092 6.25586V10H408.096ZM418.227 2.08398C417.758 2.08398 417.4 1.73242 417.4 1.26367C417.4 0.800781 417.758 0.449219 418.227 0.449219C418.695 0.449219 419.053 0.800781 419.053 1.26367C419.053 1.73242 418.695 2.08398 418.227 2.08398ZM420.893 10H415.625V9.17383H417.805V4.46875H415.643V3.64258H418.789V9.17383H420.893V10ZM422.932 10V3.64258H423.887V4.76172H423.969C424.309 3.9707 425.035 3.52539 426.002 3.52539C427.385 3.52539 428.135 4.35156 428.135 5.875V10H427.139V6.12695C427.139 4.97852 426.67 4.43945 425.68 4.43945C424.631 4.43945 423.928 5.17188 423.928 6.25586V10H422.932ZM431.059 7.22852C431.059 8.39453 431.738 9.15625 432.793 9.15625C433.842 9.15625 434.516 8.40039 434.516 7.22852V6.35547C434.516 5.18359 433.842 4.43359 432.793 4.43359C431.738 4.43359 431.059 5.18945 431.059 6.35547V7.22852ZM432.764 12.3848C431.293 12.3848 430.309 11.7402 430.18 10.6855H431.164C431.293 11.2129 431.932 11.5586 432.781 11.5586C433.895 11.5586 434.51 10.9961 434.51 9.97656V8.98633H434.404C434.123 9.6543 433.42 10.0586 432.494 10.0586C431.023 10.0586 430.057 8.99805 430.057 7.36914V6.22656C430.057 4.5918 431.029 3.53711 432.518 3.53711C433.438 3.53711 434.135 3.94141 434.41 4.62695H434.521V3.64258H435.506V10C435.506 11.4941 434.486 12.3848 432.764 12.3848ZM446.164 2.46484V5.75781H447.84C449.006 5.75781 449.662 5.16602 449.662 4.11133C449.662 3.0625 449.018 2.46484 447.887 2.46484H446.164ZM448.109 6.63086H446.164V10H445.145V1.54492H447.98C449.656 1.54492 450.705 2.51758 450.705 4.08789C450.705 5.19531 450.09 6.10352 449.129 6.41992L450.852 10H449.686L448.109 6.63086ZM455.275 4.38086C454.215 4.38086 453.576 5.10742 453.576 6.32617H456.922C456.922 5.11328 456.301 4.38086 455.275 4.38086ZM456.922 8.35938H457.889C457.695 9.4082 456.688 10.1172 455.352 10.1172C453.605 10.1172 452.592 9.06836 452.592 7.25781V6.30273C452.592 4.62695 453.664 3.52539 455.281 3.52539C456.934 3.52539 457.906 4.62109 457.906 6.46094V7.08203H453.576V7.33984C453.576 8.50586 454.268 9.25586 455.352 9.25586C456.154 9.25586 456.746 8.91602 456.922 8.35938ZM459.752 3.64258H460.818L462.594 8.93359H462.67L464.434 3.64258H465.494L463.174 10H462.078L459.752 3.64258ZM470.041 10.1172C468.359 10.1172 467.287 9.02148 467.287 7.30469V6.34375C467.287 4.62695 468.359 3.53125 470.041 3.53125C471.723 3.53125 472.795 4.62695 472.795 6.34375V7.30469C472.795 9.02148 471.723 10.1172 470.041 10.1172ZM470.041 4.41016C468.951 4.41016 468.271 5.18359 468.271 6.43164V7.21094C468.271 8.46484 468.951 9.23242 470.041 9.23242C471.131 9.23242 471.811 8.46484 471.811 7.21094V6.43164C471.811 5.18359 471.131 4.41016 470.041 4.41016ZM480.236 10H474.969V9.17383H477.143V1.97266H474.986V1.14648H478.139V9.17383H480.236V10ZM487.479 3.64258V10H486.523V8.88086H486.441C486.102 9.67188 485.375 10.1172 484.408 10.1172C483.025 10.1172 482.275 9.29102 482.275 7.76758V3.64258H483.271V7.51562C483.271 8.66406 483.74 9.20312 484.73 9.20312C485.779 9.20312 486.482 8.4707 486.482 7.38672V3.64258H487.479ZM491.211 1.9375H492.195V3.66016H494.773V4.50977H492.207V8.0957C492.207 8.78711 492.693 9.16211 493.59 9.16211C493.947 9.16211 494.586 9.14453 494.756 9.12695V9.9707C494.598 10 493.824 10.0293 493.52 10.0293C491.943 10.0293 491.211 9.43164 491.211 8.10742V4.50977H489.518V3.66016H491.211V1.9375ZM499.824 2.08398C499.355 2.08398 498.998 1.73242 498.998 1.26367C498.998 0.800781 499.355 0.449219 499.824 0.449219C500.293 0.449219 500.65 0.800781 500.65 1.26367C500.65 1.73242 500.293 2.08398 499.824 2.08398ZM502.49 10H497.223V9.17383H499.402V4.46875H497.24V3.64258H500.387V9.17383H502.49V10ZM507.131 10.1172C505.449 10.1172 504.377 9.02148 504.377 7.30469V6.34375C504.377 4.62695 505.449 3.53125 507.131 3.53125C508.812 3.53125 509.885 4.62695 509.885 6.34375V7.30469C509.885 9.02148 508.812 10.1172 507.131 10.1172ZM507.131 4.41016C506.041 4.41016 505.361 5.18359 505.361 6.43164V7.21094C505.361 8.46484 506.041 9.23242 507.131 9.23242C508.221 9.23242 508.9 8.46484 508.9 7.21094V6.43164C508.9 5.18359 508.221 4.41016 507.131 4.41016ZM511.947 10V3.64258H512.902V4.76172H512.984C513.324 3.9707 514.051 3.52539 515.018 3.52539C516.4 3.52539 517.15 4.35156 517.15 5.875V10H516.154V6.12695C516.154 4.97852 515.686 4.43945 514.695 4.43945C513.646 4.43945 512.943 5.17188 512.943 6.25586V10H511.947ZM521.387 1.54492H522.553L522.453 7.36914H521.48L521.387 1.54492ZM521.967 10.1113C521.521 10.1113 521.164 9.74219 521.164 9.2793C521.164 8.81641 521.521 8.44727 521.967 8.44727C522.412 8.44727 522.77 8.81641 522.77 9.2793C522.77 9.74219 522.412 10.1113 521.967 10.1113Z" fill="black"/>
<path d="M142.432 6.68945H144.834L143.65 2.78711H143.621L142.432 6.68945ZM145.836 10L145.104 7.57422H142.162L141.424 10H140.375L143.1 1.54492H144.201L146.926 10H145.836ZM154.133 5.31836V10H153.236V5.61133C153.236 4.83789 152.955 4.43359 152.422 4.43359C151.865 4.43359 151.525 4.91992 151.525 5.71094V10H150.635V5.60547C150.635 4.83789 150.354 4.43359 149.814 4.43359C149.252 4.43359 148.9 4.91992 148.9 5.71094V10H148.004V3.64258H148.895V4.53906H149C149.158 3.90039 149.615 3.52539 150.213 3.52539C150.811 3.52539 151.232 3.89453 151.367 4.52148H151.473C151.637 3.91211 152.146 3.52539 152.785 3.52539C153.67 3.52539 154.133 4.14062 154.133 5.31836ZM158.885 3.53711C160.355 3.53711 161.316 4.59766 161.316 6.23242V7.41602C161.316 9.04492 160.355 10.1055 158.885 10.1055C157.965 10.1055 157.291 9.71289 157.016 9.01562H156.904V12.1445H155.891V3.64258H156.875V4.61523H156.98C157.314 3.91211 157.977 3.53711 158.885 3.53711ZM158.598 4.45117C157.549 4.45117 156.881 5.20117 156.881 6.37305V7.28711C156.881 8.46484 157.549 9.21484 158.598 9.21484C159.646 9.21484 160.314 8.45898 160.314 7.28711V6.37305C160.314 5.20117 159.646 4.45117 158.598 4.45117ZM168.682 10H163.414V9.17383H165.588V1.97266H163.432V1.14648H166.584V9.17383H168.682V10ZM173.434 2.08398C172.965 2.08398 172.607 1.73242 172.607 1.26367C172.607 0.800781 172.965 0.449219 173.434 0.449219C173.902 0.449219 174.26 0.800781 174.26 1.26367C174.26 1.73242 173.902 2.08398 173.434 2.08398ZM176.1 10H170.832V9.17383H173.012V4.46875H170.85V3.64258H173.996V9.17383H176.1V10ZM179.803 10V4.50977H178.098V3.66016H179.803V3.02148C179.803 1.79102 180.564 1.2168 182.129 1.2168C182.498 1.2168 183.383 1.24609 183.594 1.27539V2.08984C183.318 2.06055 182.498 2.03711 182.141 2.03711C181.256 2.03711 180.787 2.36523 180.787 3.00391V3.66016H183.594V4.50977H180.799V10H179.803ZM186.377 12.2617C186.23 12.2617 186.037 12.2559 185.949 12.2441V11.3711C186.025 11.3887 186.207 11.3945 186.301 11.3945C186.898 11.3945 187.227 11.125 187.49 10.3867L187.602 10.041L185.264 3.64258H186.348L188.129 8.96289H188.205L189.98 3.64258H191.041L188.645 10.2344C188.088 11.7988 187.555 12.2617 186.377 12.2617ZM203.188 9.19727C204.312 9.19727 205.027 8.52344 205.057 7.43359H206.1C206.1 9.06836 204.916 10.1758 203.188 10.1758C201.201 10.1758 200.047 8.83398 200.047 6.52539V5.01953C200.047 2.71094 201.201 1.36914 203.188 1.36914C204.969 1.36914 206.07 2.45312 206.105 4.25781H205.057C205.021 3.11523 204.266 2.34766 203.182 2.34766C201.816 2.34766 201.102 3.26758 201.102 5.01953V6.52539C201.102 8.27734 201.816 9.19727 203.188 9.19727ZM210.412 10.1172C208.73 10.1172 207.658 9.02148 207.658 7.30469V6.34375C207.658 4.62695 208.73 3.53125 210.412 3.53125C212.094 3.53125 213.166 4.62695 213.166 6.34375V7.30469C213.166 9.02148 212.094 10.1172 210.412 10.1172ZM210.412 4.41016C209.322 4.41016 208.643 5.18359 208.643 6.43164V7.21094C208.643 8.46484 209.322 9.23242 210.412 9.23242C211.502 9.23242 212.182 8.46484 212.182 7.21094V6.43164C212.182 5.18359 211.502 4.41016 210.412 4.41016ZM220.607 10H215.34V9.17383H217.514V1.97266H215.357V1.14648H218.51V9.17383H220.607V10ZM228.025 10H222.758V9.17383H224.932V1.97266H222.775V1.14648H225.928V9.17383H228.025V10ZM232.021 10.1113C230.809 10.1113 230 9.34961 230 8.19531C230 7.07031 230.809 6.40234 232.256 6.32617L234.002 6.23828V5.66406C234.002 4.86719 233.516 4.42773 232.631 4.42773C231.898 4.42773 231.383 4.73828 231.219 5.2832H230.24C230.357 4.26367 231.342 3.56641 232.643 3.56641C234.137 3.56641 234.992 4.32812 234.992 5.65234V10.0059H234.043V9.05078H233.943C233.639 9.73047 232.947 10.1113 232.021 10.1113ZM232.309 9.23828C233.27 9.23828 234.002 8.59961 234.002 7.75V7L232.367 7.07617C231.477 7.11719 231.008 7.49805 231.008 8.16016C231.008 8.82812 231.506 9.23828 232.309 9.23828ZM240.482 10.1055C239.574 10.1055 238.906 9.73047 238.578 9.02734H238.467V10H237.488V1.14648H238.502V4.62695H238.607C238.889 3.92969 239.562 3.53711 240.482 3.53711C241.953 3.53711 242.914 4.59766 242.914 6.22656V7.41016C242.914 9.04492 241.953 10.1055 240.482 10.1055ZM240.189 9.19727C241.244 9.19727 241.912 8.44141 241.912 7.26953V6.35547C241.912 5.18359 241.244 4.43359 240.189 4.43359C239.146 4.43359 238.479 5.18359 238.479 6.35547V7.26953C238.479 8.44727 239.146 9.19727 240.189 9.19727ZM247.502 10.1172C245.82 10.1172 244.748 9.02148 244.748 7.30469V6.34375C244.748 4.62695 245.82 3.53125 247.502 3.53125C249.184 3.53125 250.256 4.62695 250.256 6.34375V7.30469C250.256 9.02148 249.184 10.1172 247.502 10.1172ZM247.502 4.41016C246.412 4.41016 245.732 5.18359 245.732 6.43164V7.21094C245.732 8.46484 246.412 9.23242 247.502 9.23242C248.592 9.23242 249.271 8.46484 249.271 7.21094V6.43164C249.271 5.18359 248.592 4.41016 247.502 4.41016ZM254.656 5.26562H254.785C255.02 4.08789 255.811 3.47852 257.035 3.47852C257.398 3.47852 257.744 3.53125 257.955 3.61914V4.73828C257.662 4.63281 257.252 4.5625 256.906 4.5625C255.5 4.5625 254.668 5.53516 254.668 7.15234V9.20312H256.637V10H252.412V9.20312H253.695V4.43945H252.283V3.64258H254.656V5.26562ZM261.693 10.1113C260.48 10.1113 259.672 9.34961 259.672 8.19531C259.672 7.07031 260.48 6.40234 261.928 6.32617L263.674 6.23828V5.66406C263.674 4.86719 263.188 4.42773 262.303 4.42773C261.57 4.42773 261.055 4.73828 260.891 5.2832H259.912C260.029 4.26367 261.014 3.56641 262.314 3.56641C263.809 3.56641 264.664 4.32812 264.664 5.65234V10.0059H263.715V9.05078H263.615C263.311 9.73047 262.619 10.1113 261.693 10.1113ZM261.98 9.23828C262.941 9.23828 263.674 8.59961 263.674 7.75V7L262.039 7.07617C261.148 7.11719 260.68 7.49805 260.68 8.16016C260.68 8.82812 261.178 9.23828 261.98 9.23828ZM268.672 1.9375H269.656V3.66016H272.234V4.50977H269.668V8.0957C269.668 8.78711 270.154 9.16211 271.051 9.16211C271.408 9.16211 272.047 9.14453 272.217 9.12695V9.9707C272.059 10 271.285 10.0293 270.98 10.0293C269.404 10.0293 268.672 9.43164 268.672 8.10742V4.50977H266.979V3.66016H268.672V1.9375ZM277.285 2.08398C276.816 2.08398 276.459 1.73242 276.459 1.26367C276.459 0.800781 276.816 0.449219 277.285 0.449219C277.754 0.449219 278.111 0.800781 278.111 1.26367C278.111 1.73242 277.754 2.08398 277.285 2.08398ZM279.951 10H274.684V9.17383H276.863V4.46875H274.701V3.64258H277.848V9.17383H279.951V10ZM284.592 10.1172C282.91 10.1172 281.838 9.02148 281.838 7.30469V6.34375C281.838 4.62695 282.91 3.53125 284.592 3.53125C286.273 3.53125 287.346 4.62695 287.346 6.34375V7.30469C287.346 9.02148 286.273 10.1172 284.592 10.1172ZM284.592 4.41016C283.502 4.41016 282.822 5.18359 282.822 6.43164V7.21094C282.822 8.46484 283.502 9.23242 284.592 9.23242C285.682 9.23242 286.361 8.46484 286.361 7.21094V6.43164C286.361 5.18359 285.682 4.41016 284.592 4.41016ZM289.408 10V3.64258H290.363V4.76172H290.445C290.785 3.9707 291.512 3.52539 292.479 3.52539C293.861 3.52539 294.611 4.35156 294.611 5.875V10H293.615V6.12695C293.615 4.97852 293.146 4.43945 292.156 4.43945C291.107 4.43945 290.404 5.17188 290.404 6.25586V10H289.408Z" fill="#968BC9"/>
</svg>
